<svg xmlns="http://www.w3.org/2000/svg" xmlns:xlink="http://www.w3.org/1999/xlink" width="156" zoomAndPan="magnify" viewBox="0 0 116.88 30.000001" height="40" preserveAspectRatio="xMidYMid meet" version="1.0"><defs><g/><clipPath id="bb162f57c9"><path d="M 65.207031 5.863281 L 78.996094 5.863281 L 78.996094 17.476562 L 65.207031 17.476562 Z M 65.207031 5.863281 " clip-rule="nonzero"/></clipPath></defs><g clip-path="url(#bb162f57c9)"><path fill="#8b4513" d="M 65.207031 11.597656 C 65.207031 11.597656 66.59375 10.21875 68.429688 14.148438 C 68.503906 14.304688 68.710938 14.339844 68.8125 14.191406 C 69.804688 12.726562 73.824219 7.226562 79.132812 5.867188 C 79.132812 5.867188 73.394531 9.046875 70.445312 15.078125 C 70.445312 15.078125 69.324219 17.699219 67.226562 17.324219 C 67.226562 17.324219 67.078125 14.328125 65.207031 11.597656 " fill-opacity="1" fill-rule="nonzero"/></g><g fill="#000000" fill-opacity="1"><g transform="translate(39.467801, 16.665686)"><g><path d="M 3.109375 -0.984375 C 3.085938 -0.710938 3.007812 -0.492188 2.875 -0.328125 C 2.738281 -0.171875 2.570312 -0.0625 2.375 0 C 2.175781 0.0625 1.957031 0.09375 1.71875 0.09375 C 1.5625 0.09375 1.382812 0.0507812 1.1875 -0.03125 C 1 -0.113281 0.8125 -0.238281 0.625 -0.40625 C 0.445312 -0.582031 0.289062 -0.800781 0.15625 -1.0625 L 0.1875 -1.09375 C 0.3125 -1 0.445312 -0.910156 0.59375 -0.828125 C 0.738281 -0.753906 0.878906 -0.6875 1.015625 -0.625 C 1.160156 -0.570312 1.296875 -0.53125 1.421875 -0.5 C 1.546875 -0.476562 1.644531 -0.46875 1.71875 -0.46875 C 1.863281 -0.46875 1.988281 -0.5 2.09375 -0.5625 C 2.195312 -0.632812 2.257812 -0.753906 2.28125 -0.921875 C 2.28125 -0.992188 2.234375 -1.066406 2.140625 -1.140625 C 2.046875 -1.222656 1.925781 -1.304688 1.78125 -1.390625 C 1.632812 -1.484375 1.476562 -1.578125 1.3125 -1.671875 C 1.144531 -1.773438 0.988281 -1.878906 0.84375 -1.984375 C 0.695312 -2.097656 0.578125 -2.210938 0.484375 -2.328125 C 0.390625 -2.441406 0.34375 -2.554688 0.34375 -2.671875 C 0.34375 -2.691406 0.34375 -2.707031 0.34375 -2.71875 C 0.34375 -2.726562 0.347656 -2.738281 0.359375 -2.75 C 0.390625 -2.96875 0.472656 -3.15625 0.609375 -3.3125 C 0.742188 -3.46875 0.898438 -3.585938 1.078125 -3.671875 C 1.265625 -3.765625 1.457031 -3.8125 1.65625 -3.8125 C 1.863281 -3.8125 2.082031 -3.78125 2.3125 -3.71875 C 2.550781 -3.65625 2.789062 -3.566406 3.03125 -3.453125 L 2.765625 -2.6875 C 2.515625 -2.925781 2.300781 -3.101562 2.125 -3.21875 C 1.945312 -3.332031 1.78125 -3.390625 1.625 -3.390625 C 1.457031 -3.390625 1.328125 -3.347656 1.234375 -3.265625 C 1.140625 -3.179688 1.085938 -3.039062 1.078125 -2.84375 L 1.078125 -2.828125 C 1.078125 -2.753906 1.113281 -2.679688 1.1875 -2.609375 C 1.257812 -2.535156 1.351562 -2.457031 1.46875 -2.375 C 1.59375 -2.300781 1.726562 -2.226562 1.875 -2.15625 C 2.019531 -2.082031 2.164062 -2 2.3125 -1.90625 C 2.457031 -1.820312 2.585938 -1.734375 2.703125 -1.640625 C 2.828125 -1.546875 2.925781 -1.445312 3 -1.34375 C 3.070312 -1.25 3.109375 -1.140625 3.109375 -1.015625 Z M 3.109375 -0.984375 "/></g></g></g><g fill="#000000" fill-opacity="1"><g transform="translate(42.875079, 16.665686)"><g><path d="M 2.6875 0 L 2.609375 -1.8125 L 1.21875 -1.609375 L 1.171875 0 L 0.546875 0 L 0.421875 -3.71875 L 1.296875 -3.71875 L 1.25 -2.25 L 2.609375 -2 L 2.546875 -3.71875 L 3.4375 -3.71875 L 3.3125 0 Z M 2.6875 0 "/></g></g></g><g fill="#000000" fill-opacity="1"><g transform="translate(46.729682, 16.665686)"><g><path d="M 1.9375 0.09375 C 1.757812 0.09375 1.570312 0.0507812 1.375 -0.03125 C 1.175781 -0.125 0.988281 -0.253906 0.8125 -0.421875 C 0.632812 -0.597656 0.492188 -0.804688 0.390625 -1.046875 C 0.285156 -1.296875 0.234375 -1.570312 0.234375 -1.875 C 0.234375 -2.101562 0.265625 -2.316406 0.328125 -2.515625 C 0.398438 -2.722656 0.5 -2.90625 0.625 -3.0625 C 0.75 -3.21875 0.882812 -3.351562 1.03125 -3.46875 C 1.175781 -3.582031 1.328125 -3.664062 1.484375 -3.71875 C 1.640625 -3.78125 1.789062 -3.8125 1.9375 -3.8125 C 2.082031 -3.8125 2.234375 -3.78125 2.390625 -3.71875 C 2.546875 -3.664062 2.695312 -3.582031 2.84375 -3.46875 C 3 -3.351562 3.132812 -3.21875 3.25 -3.0625 C 3.375 -2.90625 3.46875 -2.722656 3.53125 -2.515625 C 3.601562 -2.316406 3.640625 -2.101562 3.640625 -1.875 C 3.640625 -1.570312 3.585938 -1.296875 3.484375 -1.046875 C 3.378906 -0.804688 3.238281 -0.597656 3.0625 -0.421875 C 2.894531 -0.253906 2.710938 -0.125 2.515625 -0.03125 C 2.316406 0.0507812 2.125 0.09375 1.9375 0.09375 Z M 2.140625 -0.3125 C 2.285156 -0.3125 2.414062 -0.359375 2.53125 -0.453125 C 2.644531 -0.554688 2.734375 -0.695312 2.796875 -0.875 C 2.859375 -1.050781 2.890625 -1.253906 2.890625 -1.484375 C 2.890625 -1.804688 2.851562 -2.085938 2.78125 -2.328125 C 2.707031 -2.566406 2.613281 -2.765625 2.5 -2.921875 C 2.382812 -3.085938 2.257812 -3.207031 2.125 -3.28125 C 2 -3.363281 1.875 -3.40625 1.75 -3.40625 C 1.601562 -3.40625 1.472656 -3.351562 1.359375 -3.25 C 1.242188 -3.15625 1.148438 -3.019531 1.078125 -2.84375 C 1.015625 -2.675781 0.984375 -2.476562 0.984375 -2.25 C 0.984375 -1.90625 1.019531 -1.609375 1.09375 -1.359375 C 1.164062 -1.117188 1.257812 -0.921875 1.375 -0.765625 C 1.5 -0.609375 1.625 -0.492188 1.75 -0.421875 C 1.882812 -0.347656 2.015625 -0.3125 2.140625 -0.3125 Z M 2.140625 -0.3125 "/></g></g></g><g fill="#000000" fill-opacity="1"><g transform="translate(50.608079, 16.665686)"><g><path d="M 0.59375 0 L 0.421875 -3.71875 L 1.28125 -3.71875 L 1.28125 -3.578125 C 1.457031 -3.628906 1.617188 -3.664062 1.765625 -3.6875 C 1.910156 -3.707031 2.050781 -3.71875 2.1875 -3.71875 C 2.4375 -3.71875 2.644531 -3.679688 2.8125 -3.609375 C 2.988281 -3.535156 3.117188 -3.4375 3.203125 -3.3125 C 3.296875 -3.195312 3.34375 -3.066406 3.34375 -2.921875 C 3.34375 -2.785156 3.3125 -2.640625 3.25 -2.484375 C 3.195312 -2.335938 3.09375 -2.195312 2.9375 -2.0625 C 2.78125 -1.925781 2.5625 -1.804688 2.28125 -1.703125 C 2.007812 -1.609375 1.660156 -1.546875 1.234375 -1.515625 L 1.203125 0 Z M 1.234375 -1.609375 C 1.492188 -1.660156 1.707031 -1.738281 1.875 -1.84375 C 2.039062 -1.945312 2.171875 -2.0625 2.265625 -2.1875 C 2.359375 -2.320312 2.421875 -2.453125 2.453125 -2.578125 C 2.492188 -2.710938 2.515625 -2.820312 2.515625 -2.90625 C 2.515625 -3.039062 2.453125 -3.15625 2.328125 -3.25 C 2.210938 -3.34375 2.015625 -3.390625 1.734375 -3.390625 C 1.671875 -3.390625 1.597656 -3.382812 1.515625 -3.375 C 1.441406 -3.375 1.363281 -3.363281 1.28125 -3.34375 Z M 1.234375 -1.609375 "/></g></g></g><g fill="#000000" fill-opacity="1"><g transform="translate(53.996322, 16.665686)"><g><path d="M 0.546875 0.0625 L 0.421875 -3.71875 L 1.296875 -3.71875 L 1.171875 -0.703125 L 2.875 -0.4375 L 2.875 -0.375 Z M 0.546875 0.0625 "/></g></g></g><g fill="#000000" fill-opacity="1"><g transform="translate(57.013382, 16.665686)"><g><path d="M 0.578125 0 L 0.4375 -3.71875 L 1.328125 -3.71875 L 1.203125 0 Z M 0.578125 0 "/></g></g></g><g fill="#000000" fill-opacity="1"><g transform="translate(58.783644, 16.665686)"><g><path d="M 3.109375 -0.984375 C 3.085938 -0.710938 3.007812 -0.492188 2.875 -0.328125 C 2.738281 -0.171875 2.570312 -0.0625 2.375 0 C 2.175781 0.0625 1.957031 0.09375 1.71875 0.09375 C 1.5625 0.09375 1.382812 0.0507812 1.1875 -0.03125 C 1 -0.113281 0.8125 -0.238281 0.625 -0.40625 C 0.445312 -0.582031 0.289062 -0.800781 0.15625 -1.0625 L 0.1875 -1.09375 C 0.3125 -1 0.445312 -0.910156 0.59375 -0.828125 C 0.738281 -0.753906 0.878906 -0.6875 1.015625 -0.625 C 1.160156 -0.570312 1.296875 -0.53125 1.421875 -0.5 C 1.546875 -0.476562 1.644531 -0.46875 1.71875 -0.46875 C 1.863281 -0.46875 1.988281 -0.5 2.09375 -0.5625 C 2.195312 -0.632812 2.257812 -0.753906 2.28125 -0.921875 C 2.28125 -0.992188 2.234375 -1.066406 2.140625 -1.140625 C 2.046875 -1.222656 1.925781 -1.304688 1.78125 -1.390625 C 1.632812 -1.484375 1.476562 -1.578125 1.3125 -1.671875 C 1.144531 -1.773438 0.988281 -1.878906 0.84375 -1.984375 C 0.695312 -2.097656 0.578125 -2.210938 0.484375 -2.328125 C 0.390625 -2.441406 0.34375 -2.554688 0.34375 -2.671875 C 0.34375 -2.691406 0.34375 -2.707031 0.34375 -2.71875 C 0.34375 -2.726562 0.347656 -2.738281 0.359375 -2.75 C 0.390625 -2.96875 0.472656 -3.15625 0.609375 -3.3125 C 0.742188 -3.46875 0.898438 -3.585938 1.078125 -3.671875 C 1.265625 -3.765625 1.457031 -3.8125 1.65625 -3.8125 C 1.863281 -3.8125 2.082031 -3.78125 2.3125 -3.71875 C 2.550781 -3.65625 2.789062 -3.566406 3.03125 -3.453125 L 2.765625 -2.6875 C 2.515625 -2.925781 2.300781 -3.101562 2.125 -3.21875 C 1.945312 -3.332031 1.78125 -3.390625 1.625 -3.390625 C 1.457031 -3.390625 1.328125 -3.347656 1.234375 -3.265625 C 1.140625 -3.179688 1.085938 -3.039062 1.078125 -2.84375 L 1.078125 -2.828125 C 1.078125 -2.753906 1.113281 -2.679688 1.1875 -2.609375 C 1.257812 -2.535156 1.351562 -2.457031 1.46875 -2.375 C 1.59375 -2.300781 1.726562 -2.226562 1.875 -2.15625 C 2.019531 -2.082031 2.164062 -2 2.3125 -1.90625 C 2.457031 -1.820312 2.585938 -1.734375 2.703125 -1.640625 C 2.828125 -1.546875 2.925781 -1.445312 3 -1.34375 C 3.070312 -1.25 3.109375 -1.140625 3.109375 -1.015625 Z M 3.109375 -0.984375 "/></g></g></g><g fill="#000000" fill-opacity="1"><g transform="translate(62.190922, 16.665686)"><g><path d="M 1.203125 0 L 1.0625 -3.171875 L 0.078125 -3.046875 L 0.078125 -3.765625 L 3.03125 -3.5 L 3.03125 -3.421875 L 1.9375 -3.28125 L 1.8125 0 Z M 1.203125 0 "/></g></g></g></svg>