<svg xmlns="http://www.w3.org/2000/svg" xmlns:xlink="http://www.w3.org/1999/xlink" width="500" zoomAndPan="magnify" viewBox="0 0 375 299.999988" height="400" preserveAspectRatio="xMidYMid meet" version="1.0"><defs><g/><clipPath id="474efd9db8"><path d="M 221.539062 87.894531 L 301.039062 87.894531 L 301.039062 154 L 221.539062 154 Z M 221.539062 87.894531 " clip-rule="nonzero"/></clipPath></defs><g clip-path="url(#474efd9db8)"><path fill="#8b4513" d="M 221.535156 120.707031 C 221.535156 120.707031 229.476562 112.832031 239.984375 135.304688 C 240.410156 136.21875 241.609375 136.40625 242.175781 135.570312 C 247.855469 127.179688 270.867188 95.699219 301.246094 87.921875 C 301.246094 87.921875 268.40625 106.109375 251.53125 140.632812 C 251.53125 140.632812 245.105469 155.632812 233.105469 153.488281 C 233.105469 153.488281 232.25 136.347656 221.535156 120.707031 " fill-opacity="1" fill-rule="nonzero"/></g><g fill="#000000" fill-opacity="1"><g transform="translate(74.290574, 149.698493)"><g><path d="M 17.75 -5.609375 C 17.644531 -4.046875 17.210938 -2.816406 16.453125 -1.921875 C 15.691406 -1.023438 14.734375 -0.390625 13.578125 -0.015625 C 12.421875 0.359375 11.179688 0.546875 9.859375 0.546875 C 8.910156 0.546875 7.882812 0.300781 6.78125 -0.1875 C 5.6875 -0.675781 4.625 -1.410156 3.59375 -2.390625 C 2.5625 -3.378906 1.65625 -4.613281 0.875 -6.09375 L 1.0625 -6.296875 C 1.789062 -5.734375 2.566406 -5.222656 3.390625 -4.765625 C 4.210938 -4.304688 5.03125 -3.914062 5.84375 -3.59375 C 6.664062 -3.28125 7.425781 -3.039062 8.125 -2.875 C 8.820312 -2.71875 9.390625 -2.640625 9.828125 -2.640625 C 10.679688 -2.640625 11.398438 -2.835938 11.984375 -3.234375 C 12.578125 -3.640625 12.921875 -4.304688 13.015625 -5.234375 L 13.015625 -5.3125 C 13.015625 -5.707031 12.75 -6.128906 12.21875 -6.578125 C 11.695312 -7.023438 11.015625 -7.5 10.171875 -8 C 9.328125 -8.507812 8.4375 -9.046875 7.5 -9.609375 C 6.5625 -10.171875 5.675781 -10.753906 4.84375 -11.359375 C 4.007812 -11.972656 3.320312 -12.609375 2.78125 -13.265625 C 2.25 -13.921875 1.984375 -14.601562 1.984375 -15.3125 C 1.984375 -15.394531 1.984375 -15.46875 1.984375 -15.53125 C 1.984375 -15.59375 1.992188 -15.660156 2.015625 -15.734375 C 2.234375 -16.953125 2.71875 -18.015625 3.46875 -18.921875 C 4.226562 -19.835938 5.132812 -20.546875 6.1875 -21.046875 C 7.25 -21.554688 8.351562 -21.8125 9.5 -21.8125 C 10.664062 -21.8125 11.914062 -21.632812 13.25 -21.28125 C 14.582031 -20.925781 15.945312 -20.421875 17.34375 -19.765625 L 15.828125 -15.328125 C 14.410156 -16.710938 13.191406 -17.726562 12.171875 -18.375 C 11.160156 -19.03125 10.195312 -19.359375 9.28125 -19.359375 C 8.300781 -19.359375 7.550781 -19.117188 7.03125 -18.640625 C 6.519531 -18.160156 6.226562 -17.359375 6.15625 -16.234375 L 6.15625 -16.15625 C 6.15625 -15.738281 6.363281 -15.316406 6.78125 -14.890625 C 7.195312 -14.472656 7.75 -14.050781 8.4375 -13.625 C 9.132812 -13.195312 9.894531 -12.757812 10.71875 -12.3125 C 11.539062 -11.875 12.363281 -11.414062 13.1875 -10.9375 C 14.019531 -10.457031 14.78125 -9.945312 15.46875 -9.40625 C 16.15625 -8.875 16.707031 -8.3125 17.125 -7.71875 C 17.539062 -7.125 17.75 -6.492188 17.75 -5.828125 Z M 17.75 -5.609375 "/></g></g></g><g fill="#000000" fill-opacity="1"><g transform="translate(93.783396, 149.698493)"><g><path d="M 15.328125 0 L 14.953125 -10.34375 L 7 -9.234375 L 6.671875 0 L 3.15625 0 L 2.390625 -21.25 L 7.4375 -21.25 L 7.140625 -12.828125 L 14.921875 -11.4375 L 14.578125 -21.25 L 19.65625 -21.25 L 18.90625 0 Z M 15.328125 0 "/></g></g></g><g fill="#000000" fill-opacity="1"><g transform="translate(115.835331, 149.698493)"><g><path d="M 11.109375 0.546875 C 10.078125 0.546875 8.992188 0.289062 7.859375 -0.21875 C 6.722656 -0.738281 5.65625 -1.488281 4.65625 -2.46875 C 3.65625 -3.457031 2.847656 -4.640625 2.234375 -6.015625 C 1.617188 -7.398438 1.3125 -8.953125 1.3125 -10.671875 C 1.3125 -12.015625 1.515625 -13.265625 1.921875 -14.421875 C 2.328125 -15.578125 2.875 -16.609375 3.5625 -17.515625 C 4.257812 -18.421875 5.03125 -19.195312 5.875 -19.84375 C 6.726562 -20.488281 7.601562 -20.976562 8.5 -21.3125 C 9.40625 -21.644531 10.273438 -21.8125 11.109375 -21.8125 C 11.929688 -21.8125 12.789062 -21.640625 13.6875 -21.296875 C 14.582031 -20.953125 15.453125 -20.457031 16.296875 -19.8125 C 17.140625 -19.164062 17.90625 -18.390625 18.59375 -17.484375 C 19.289062 -16.578125 19.835938 -15.550781 20.234375 -14.40625 C 20.628906 -13.257812 20.828125 -12.015625 20.828125 -10.671875 C 20.828125 -8.953125 20.519531 -7.398438 19.90625 -6.015625 C 19.289062 -4.640625 18.492188 -3.457031 17.515625 -2.46875 C 16.535156 -1.488281 15.476562 -0.738281 14.34375 -0.21875 C 13.21875 0.289062 12.140625 0.546875 11.109375 0.546875 Z M 12.203125 -1.796875 C 13.054688 -1.796875 13.804688 -2.078125 14.453125 -2.640625 C 15.109375 -3.203125 15.625 -3.988281 16 -5 C 16.375 -6.007812 16.5625 -7.175781 16.5625 -8.5 C 16.5625 -10.332031 16.351562 -11.929688 15.9375 -13.296875 C 15.519531 -14.671875 14.972656 -15.8125 14.296875 -16.71875 C 13.628906 -17.625 12.914062 -18.300781 12.15625 -18.75 C 11.40625 -19.207031 10.691406 -19.4375 10.015625 -19.4375 C 9.179688 -19.4375 8.425781 -19.160156 7.75 -18.609375 C 7.082031 -18.054688 6.550781 -17.289062 6.15625 -16.3125 C 5.769531 -15.332031 5.578125 -14.179688 5.578125 -12.859375 C 5.578125 -10.910156 5.789062 -9.238281 6.21875 -7.84375 C 6.644531 -6.445312 7.195312 -5.300781 7.875 -4.40625 C 8.5625 -3.519531 9.285156 -2.863281 10.046875 -2.4375 C 10.804688 -2.007812 11.523438 -1.796875 12.203125 -1.796875 Z M 12.203125 -1.796875 "/></g></g></g><g fill="#000000" fill-opacity="1"><g transform="translate(138.023391, 149.698493)"><g><path d="M 3.40625 0 L 2.390625 -21.25 L 7.359375 -21.25 L 7.328125 -20.421875 C 8.304688 -20.710938 9.226562 -20.921875 10.09375 -21.046875 C 10.957031 -21.179688 11.75 -21.25 12.46875 -21.25 C 13.925781 -21.25 15.148438 -21.035156 16.140625 -20.609375 C 17.128906 -20.179688 17.875 -19.625 18.375 -18.9375 C 18.882812 -18.257812 19.140625 -17.519531 19.140625 -16.71875 C 19.140625 -15.9375 18.96875 -15.117188 18.625 -14.265625 C 18.28125 -13.410156 17.664062 -12.59375 16.78125 -11.8125 C 15.90625 -11.039062 14.679688 -10.367188 13.109375 -9.796875 C 11.535156 -9.234375 9.523438 -8.851562 7.078125 -8.65625 L 6.890625 0 Z M 7.078125 -9.203125 C 8.566406 -9.492188 9.785156 -9.9375 10.734375 -10.53125 C 11.691406 -11.132812 12.429688 -11.804688 12.953125 -12.546875 C 13.484375 -13.296875 13.851562 -14.03125 14.0625 -14.75 C 14.269531 -15.476562 14.375 -16.109375 14.375 -16.640625 C 14.375 -17.378906 14.035156 -18.015625 13.359375 -18.546875 C 12.679688 -19.085938 11.53125 -19.359375 9.90625 -19.359375 C 9.53125 -19.359375 9.125 -19.34375 8.6875 -19.3125 C 8.25 -19.289062 7.785156 -19.234375 7.296875 -19.140625 Z M 7.078125 -9.203125 "/></g></g></g><g fill="#000000" fill-opacity="1"><g transform="translate(157.407309, 149.698493)"><g><path d="M 3.15625 0.359375 L 2.390625 -21.25 L 7.4375 -21.25 L 6.671875 -4 L 16.453125 -2.53125 L 16.421875 -2.171875 Z M 3.15625 0.359375 "/></g></g></g><g fill="#000000" fill-opacity="1"><g transform="translate(174.667719, 149.698493)"><g><path d="M 3.265625 0 L 2.5 -21.25 L 7.625 -21.25 L 6.859375 0 Z M 3.265625 0 "/></g></g></g><g fill="#000000" fill-opacity="1"><g transform="translate(184.79527, 149.698493)"><g><path d="M 17.75 -5.609375 C 17.644531 -4.046875 17.210938 -2.816406 16.453125 -1.921875 C 15.691406 -1.023438 14.734375 -0.390625 13.578125 -0.015625 C 12.421875 0.359375 11.179688 0.546875 9.859375 0.546875 C 8.910156 0.546875 7.882812 0.300781 6.78125 -0.1875 C 5.6875 -0.675781 4.625 -1.410156 3.59375 -2.390625 C 2.5625 -3.378906 1.65625 -4.613281 0.875 -6.09375 L 1.0625 -6.296875 C 1.789062 -5.734375 2.566406 -5.222656 3.390625 -4.765625 C 4.210938 -4.304688 5.03125 -3.914062 5.84375 -3.59375 C 6.664062 -3.28125 7.425781 -3.039062 8.125 -2.875 C 8.820312 -2.71875 9.390625 -2.640625 9.828125 -2.640625 C 10.679688 -2.640625 11.398438 -2.835938 11.984375 -3.234375 C 12.578125 -3.640625 12.921875 -4.304688 13.015625 -5.234375 L 13.015625 -5.3125 C 13.015625 -5.707031 12.75 -6.128906 12.21875 -6.578125 C 11.695312 -7.023438 11.015625 -7.5 10.171875 -8 C 9.328125 -8.507812 8.4375 -9.046875 7.5 -9.609375 C 6.5625 -10.171875 5.675781 -10.753906 4.84375 -11.359375 C 4.007812 -11.972656 3.320312 -12.609375 2.78125 -13.265625 C 2.25 -13.921875 1.984375 -14.601562 1.984375 -15.3125 C 1.984375 -15.394531 1.984375 -15.46875 1.984375 -15.53125 C 1.984375 -15.59375 1.992188 -15.660156 2.015625 -15.734375 C 2.234375 -16.953125 2.71875 -18.015625 3.46875 -18.921875 C 4.226562 -19.835938 5.132812 -20.546875 6.1875 -21.046875 C 7.25 -21.554688 8.351562 -21.8125 9.5 -21.8125 C 10.664062 -21.8125 11.914062 -21.632812 13.25 -21.28125 C 14.582031 -20.925781 15.945312 -20.421875 17.34375 -19.765625 L 15.828125 -15.328125 C 14.410156 -16.710938 13.191406 -17.726562 12.171875 -18.375 C 11.160156 -19.03125 10.195312 -19.359375 9.28125 -19.359375 C 8.300781 -19.359375 7.550781 -19.117188 7.03125 -18.640625 C 6.519531 -18.160156 6.226562 -17.359375 6.15625 -16.234375 L 6.15625 -16.15625 C 6.15625 -15.738281 6.363281 -15.316406 6.78125 -14.890625 C 7.195312 -14.472656 7.75 -14.050781 8.4375 -13.625 C 9.132812 -13.195312 9.894531 -12.757812 10.71875 -12.3125 C 11.539062 -11.875 12.363281 -11.414062 13.1875 -10.9375 C 14.019531 -10.457031 14.78125 -9.945312 15.46875 -9.40625 C 16.15625 -8.875 16.707031 -8.3125 17.125 -7.71875 C 17.539062 -7.125 17.75 -6.492188 17.75 -5.828125 Z M 17.75 -5.609375 "/></g></g></g><g fill="#000000" fill-opacity="1"><g transform="translate(204.288089, 149.698493)"><g><path d="M 6.828125 0 L 6.09375 -18.109375 L 0.4375 -17.375 L 0.4375 -21.515625 L 17.296875 -19.96875 L 17.296875 -19.578125 L 11.109375 -18.765625 L 10.375 0 Z M 6.828125 0 "/></g></g></g></svg>